<?xml version="1.0" standalone="no"?>
<!DOCTYPE svg PUBLIC "-//W3C//DTD SVG 20010904//EN"
 "http://www.w3.org/TR/2001/REC-SVG-20010904/DTD/svg10.dtd">
<svg version="1.0" xmlns="http://www.w3.org/2000/svg"
 width="512.000000pt" height="512.000000pt" viewBox="0 0 512.000000 512.000000"
 preserveAspectRatio="xMidYMid meet">

<g transform="translate(0.000000,512.000000) scale(0.100000,-0.100000)"
fill="#000000" stroke="none">
<path d="M2089 4527 c-52 -20 -92 -54 -144 -122 -59 -78 -181 -323 -224 -448
-29 -85 -37 -98 -60 -103 -108 -24 -238 -60 -304 -86 -93 -36 -167 -98 -167
-141 0 -35 46 -86 107 -119 47 -26 242 -89 314 -102 l36 -6 6 -123 c3 -76 13
-147 25 -189 l19 -68 -253 -2 -253 -3 105 -255 c57 -140 104 -257 104 -260 0
-3 -29 -25 -64 -48 -171 -112 -298 -313 -371 -584 -53 -199 -68 -325 -69 -578
-1 -260 3 -286 62 -405 66 -133 202 -236 372 -282 60 -17 149 -18 1230 -18
1081 0 1170 1 1230 18 210 56 352 188 417 386 20 62 28 337 14 483 -34 348
-113 611 -235 782 -52 73 -164 181 -212 204 -19 8 -34 22 -34 29 0 7 41 124
90 259 50 135 90 252 90 260 0 12 -42 14 -249 14 l-249 0 19 73 c11 39 22 125
26 189 l6 117 56 12 c80 16 238 67 291 94 67 34 104 78 104 122 0 76 -115 140
-370 206 l-125 32 -34 98 c-18 54 -58 149 -88 211 -104 217 -192 325 -284 352
-74 22 -104 15 -267 -64 -190 -91 -202 -90 -391 1 -153 74 -213 87 -276 64z
m343 -1237 l128 -21 128 21 c140 24 441 37 507 23 37 -8 40 -11 43 -47 2 -28
-2 -43 -16 -57 -11 -10 -28 -42 -37 -71 -62 -188 -134 -251 -290 -252 -63 0
-90 5 -126 22 -64 31 -85 57 -123 153 -24 61 -40 88 -59 99 -45 25 -73 0 -112
-98 -38 -95 -60 -123 -124 -154 -65 -31 -188 -31 -253 1 -73 35 -109 87 -162
232 -9 26 -26 57 -37 70 -14 16 -19 34 -17 59 3 30 7 36 33 42 61 14 386 0
517 -22z m-320 -961 l143 -72 109 -145 c60 -80 111 -152 113 -161 3 -14 -212
-1040 -220 -1048 -2 -2 -71 334 -154 747 -82 412 -146 750 -142 750 5 0 73
-32 151 -71z m905 -679 c-83 -413 -152 -749 -153 -747 -9 8 -224 1034 -221
1048 2 9 53 81 113 161 l109 145 140 71 c77 39 145 71 151 71 7 1 -48 -293
-139 -749z"/>
</g>
</svg>
